HIERARCHY
ROOT Hips
{
	OFFSET 0.000000 0.000000 0.000000
	CHANNELS 6 Xposition Yposition Zposition Zrotation Yrotation Xrotation 
	JOINT LHipJoint
	{
		OFFSET 0.000000 0.000000 0.000000
		CHANNELS 3 Zrotation Yrotation Xrotation
		JOINT LeftUpLeg
		{
			OFFSET 1.363060 -1.794630 0.839290
			CHANNELS 3 Zrotation Yrotation Xrotation
			JOINT LeftLeg
			{
				OFFSET 2.448110 -6.726130 0.000000
				CHANNELS 3 Zrotation Yrotation Xrotation
				JOINT LeftFoot
				{
					OFFSET 2.562200 -7.039590 0.000000
					CHANNELS 3 Zrotation Yrotation Xrotation
					JOINT LeftToeBase
					{
						OFFSET 0.157640 -0.433110 2.322550
						CHANNELS 3 Zrotation Yrotation Xrotation
						End Site
						{
							OFFSET 0.000000 0.000000 0.000000
						}
					}
				}
			}
		}
	}
	JOINT RHipJoint
	{
		OFFSET 0.000000 0.000000 0.000000
		CHANNELS 3 Zrotation Yrotation Xrotation
		JOINT RightUpLeg
		{
			OFFSET -1.305520 -1.794630 0.839290
			CHANNELS 3 Zrotation Yrotation Xrotation
			JOINT RightLeg
			{
				OFFSET -2.542530 -6.985550 0.000000
				CHANNELS 3 Zrotation Yrotation Xrotation
				JOINT RightFoot
				{
					OFFSET -2.568260 -7.056230 0.000000
					CHANNELS 3 Zrotation Yrotation Xrotation
					JOINT RightToeBase
					{
						OFFSET -0.164730 -0.452590 2.363150
						CHANNELS 3 Zrotation Yrotation Xrotation
						End Site
						{
							OFFSET 0.000000 0.000000 0.000000
						}
					}
				}
			}
		}
	}
	JOINT LowerBack
	{
		OFFSET 0.000000 0.000000 0.000000
		CHANNELS 3 Zrotation Yrotation Xrotation
		JOINT Spine
		{
			OFFSET 0.028270 2.035590 -0.193380
			CHANNELS 3 Zrotation Yrotation Xrotation
			JOINT Spine1
			{
				OFFSET 0.056720 2.048850 -0.042750
				CHANNELS 3 Zrotation Yrotation Xrotation
				JOINT Neck
				{
					OFFSET 0.000000 0.000000 0.000000
					CHANNELS 3 Zrotation Yrotation Xrotation
					JOINT Neck1
					{
						OFFSET -0.054170 1.746240 0.172020
						CHANNELS 3 Zrotation Yrotation Xrotation
						JOINT Head
						{
							OFFSET 0.104070 1.761360 -0.123970
							CHANNELS 3 Zrotation Yrotation Xrotation
							End Site
							{
								OFFSET 0.000000 0.000000 0.000000
							}
						}
					}
				}
				JOINT LeftShoulder
				{
					OFFSET 0.000000 0.000000 0.000000
					CHANNELS 3 Zrotation Yrotation Xrotation
					JOINT LeftArm
					{
						OFFSET 3.362410 1.200890 -0.311210
						CHANNELS 3 Zrotation Yrotation Xrotation
						JOINT LeftForeArm
						{
							OFFSET 4.983000 -0.000000 -0.000000
							CHANNELS 3 Zrotation Yrotation Xrotation
							JOINT LeftHand
							{
								OFFSET 3.483560 -0.000000 -0.000000
								CHANNELS 3 Zrotation Yrotation Xrotation
								JOINT LeftFingerBase
								{
									OFFSET 0.000000 0.000000 0.000000
									CHANNELS 3 Zrotation Yrotation Xrotation
									JOINT LeftHandIndex1
									{
										OFFSET 0.715260 -0.000000 -0.000000
										CHANNELS 3 Zrotation Yrotation Xrotation
										End Site
										{
											OFFSET 0.000000 0.000000 0.000000
										}
									}
								}
								JOINT LThumb
								{
									OFFSET 0.000000 0.000000 0.000000
									CHANNELS 3 Zrotation Yrotation Xrotation
									End Site
									{
										OFFSET 0.000000 0.000000 0.000000
									}
								}
							}
						}
					}
				}
				JOINT RightShoulder
				{
					OFFSET 0.000000 0.000000 0.000000
					CHANNELS 3 Zrotation Yrotation Xrotation
					JOINT RightArm
					{
						OFFSET -3.136600 1.374050 -0.404650
						CHANNELS 3 Zrotation Yrotation Xrotation
						JOINT RightForeArm
						{
							OFFSET -5.241900 -0.000000 -0.000000
							CHANNELS 3 Zrotation Yrotation Xrotation
							JOINT RightHand
							{
								OFFSET -3.444170 -0.000000 -0.000000
								CHANNELS 3 Zrotation Yrotation Xrotation
								JOINT RightFingerBase
								{
									OFFSET 0.000000 0.000000 0.000000
									CHANNELS 3 Zrotation Yrotation Xrotation
									JOINT RightHandIndex1
									{
										OFFSET -0.622530 -0.000000 -0.000000
										CHANNELS 3 Zrotation Yrotation Xrotation
										End Site
										{
											OFFSET 0.000000 0.000000 0.000000
										}
									}
								}
								JOINT RThumb
								{
									OFFSET 0.000000 0.000000 0.000000
									CHANNELS 3 Zrotation Yrotation Xrotation
									End Site
									{
										OFFSET 0.000000 0.000000 0.000000
									}
								}
							}
						}
					}
				}
			}
		}
	}
}
MOTION
Frames: 9
Frame Time: 0.008333
0.727487 20.003387 -8.064331 -1.880293 1.360888 9.759085 -0.871167 0.238406 0.604922 -13.602264 -0.098564 -15.161189 3.574576 12.264890 34.465807 1.706810 15.847882 35.413768 0.036034 -1.204736 -3.312575 -1.443233 -0.406827 -0.180596 19.702316 3.119820 -16.492570 -5.403965 -14.158650 42.451712 0.733338 -14.192652 18.716593 -0.717383 -5.411349 15.085930 -0.062701 0.165367 1.483978 1.480303 0.301363 -2.066946 2.382574 -0.298410 4.997720 -4.275838 -1.823450 -7.287532 3.093456 -1.903370 27.574995 0.477832 -0.494365 10.013419 9.891289 3.968509 -0.275447 -99.003373 -31.443634 41.829713 12.777154 -24.528081 -3.046745 0.102787 -0.529090 -24.025146 30.561358 -10.702413 -5.928856 -7.125000 0.000000 0.000000 2.587139 18.309102 -1.645136 -8.687642 -3.197639 -0.152126 93.323107 25.854099 25.002842 -12.016426 23.975361 -3.010576 0.726076 0.642700 28.796846 -23.289952 -19.485651 8.678336 7.125000 0.000000 0.000000 5.009226 -52.033905 -0.869290
0.726044 20.265189 -7.816565 -1.724276 1.759736 9.413707 -0.739420 0.162450 0.483675 -13.836813 -0.326912 -16.339345 4.169176 12.964110 36.890029 1.489618 16.043033 34.500919 0.012599 -0.717503 -1.971764 -1.505220 -0.364151 -0.181305 19.644072 3.394290 -17.387714 -5.589888 -14.370136 43.222909 0.622129 -13.789003 19.061607 -0.810754 -5.745363 16.047529 -0.231729 0.050615 1.468161 1.478312 0.151023 -2.058900 2.420767 -0.376173 5.041021 -4.351807 -1.843651 -7.216695 3.183011 -1.953726 27.959581 0.532446 -0.510657 10.144269 9.908342 3.946526 -0.320653 -99.825095 -31.808559 42.407553 12.717458 -24.374715 -3.011674 0.102289 -0.520649 -23.969176 30.524135 -10.715908 -5.932618 -7.125000 0.000000 0.000000 2.556408 18.287279 -1.626773 -8.711885 -3.165767 -0.139922 94.011583 26.175205 24.322802 -11.562966 23.267439 -2.807674 0.737003 0.634716 29.403985 -23.391051 -19.496713 8.726209 7.125000 0.000000 0.000000 4.907113 -52.066580 -0.855420
0.725737 20.501010 -7.581531 -1.634161 2.264277 8.921836 -0.593758 0.084802 0.360638 -13.999818 -0.667406 -17.609376 4.818775 13.701369 39.600226 1.401995 15.463609 33.738869 0.002704 -0.307741 -0.845629 -1.559630 -0.322551 -0.184822 19.668783 3.508164 -18.151638 -5.679776 -14.475077 43.597894 0.542216 -13.538323 19.364585 -0.881814 -5.985999 16.743869 -0.287116 -0.083853 1.823096 1.487652 -0.014924 -2.030494 2.429280 -0.457018 4.975375 -4.413523 -1.869705 -7.152837 3.264616 -2.013020 28.232946 0.578600 -0.532667 10.245950 9.925181 3.912318 -0.366497 -100.663820 -32.172349 43.089035 12.581751 -24.091615 -2.943480 0.099169 -0.510579 -23.410226 30.324182 -10.553325 -5.798790 -7.125000 0.000000 0.000000 2.424922 18.482162 -1.532612 -8.733009 -3.120004 -0.125873 94.658907 26.461841 23.497004 -11.139209 22.582580 -2.621372 0.752093 0.620136 30.138556 -23.602211 -19.439944 8.792274 7.125000 0.000000 0.000000 4.668877 -52.044961 -0.811292
0.726141 20.711327 -7.353299 -1.647869 2.834353 8.265372 -0.459939 0.019477 0.246961 -14.056726 -1.036528 -18.810107 5.469844 14.389192 42.235126 1.380627 14.733885 33.187237 0.001195 0.171354 0.470846 -1.597180 -0.286708 -0.190647 19.794384 3.459414 -18.670979 -5.621970 -14.433605 43.428855 0.471176 -13.181715 19.531235 -0.912284 -6.086184 17.034668 -0.213868 -0.221984 2.479363 1.514465 -0.176048 -1.974882 2.435304 -0.534608 4.849620 -4.480511 -1.906825 -7.098801 3.334158 -2.081620 28.439334 0.619428 -0.562173 10.331216 9.942900 3.870242 -0.411244 -101.532740 -32.517945 43.832908 12.390339 -23.711754 -2.852213 0.094152 -0.498995 -22.454770 29.986746 -10.269081 -5.567908 -7.125000 0.000000 0.000000 2.204466 18.827317 -1.376294 -8.746406 -3.065996 -0.107105 95.215111 26.720212 22.608190 -10.741189 21.922753 -2.449968 0.769421 0.600862 31.025235 -23.844303 -19.329917 8.848955 7.125000 0.000000 0.000000 4.382235 -51.970685 -0.753329
0.726746 20.896806 -7.126410 -1.755156 3.405575 7.490409 -0.351399 -0.032146 0.148305 -14.029899 -1.338019 -19.883044 6.052281 14.962709 44.513394 1.334922 14.117535 32.586192 0.010447 0.646864 1.777563 -1.611860 -0.256389 -0.198095 19.984886 3.300672 -18.942115 -5.404964 -14.234639 42.670853 0.397195 -12.696074 19.625801 -0.892211 -6.020615 16.844277 -0.050289 -0.344097 3.315183 1.556084 -0.307238 -1.896103 2.459576 -0.598992 4.703904 -4.564576 -1.960162 -7.051611 3.397655 -2.165933 28.617641 0.659055 -0.601977 10.409929 9.961506 3.825354 -0.453598 -102.425566 -32.819389 44.591717 12.172370 -23.282701 -2.751521 0.088189 -0.486216 -21.322428 29.527667 -9.963522 -5.304272 -7.125000 0.000000 0.000000 1.896923 19.204779 -1.168271 -8.750619 -3.009947 -0.083299 95.672290 26.950679 21.678182 -10.360026 21.279470 -2.289527 0.786091 0.582048 32.028802 -24.009618 -19.269963 8.894008 7.125000 0.000000 0.000000 4.190313 -51.936696 -0.716722
0.727255 21.057735 -6.896570 -1.891042 3.906903 6.698214 -0.276046 -0.076051 0.065956 -13.983833 -1.508455 -20.840334 6.485621 15.374703 46.190880 1.238811 13.645834 31.825297 0.024232 1.002021 2.754477 -1.600180 -0.228497 -0.205817 20.149588 3.108094 -19.061762 -5.055486 -13.894752 41.388543 0.325914 -12.211964 19.726808 -0.843936 -5.859305 16.376858 0.116807 -0.429447 4.178220 1.600616 -0.385173 -1.808658 2.510074 -0.639759 4.562341 -4.666522 -2.031493 -7.007277 3.467425 -2.273271 28.804149 0.701756 -0.653473 10.492693 9.979745 3.782589 -0.493148 -103.313411 -33.045375 45.334105 11.973460 -22.879852 -2.660515 0.083072 -0.472947 -20.312379 29.042635 -9.685865 -5.057507 -7.125000 0.000000 0.000000 1.566461 19.549121 -0.952530 -8.747918 -2.957472 -0.056831 96.053311 27.152252 20.698518 -9.984305 20.637915 -2.135444 0.800967 0.565668 33.067117 -24.077422 -19.264930 8.921668 7.125000 0.000000 0.000000 4.115839 -51.944954 -0.704761
0.727635 21.193410 -6.661807 -1.988452 4.292912 5.991558 -0.237384 -0.119370 -0.001798 -13.978250 -1.536745 -21.715868 6.707063 15.598462 47.095809 1.120306 13.261953 31.000935 0.034892 1.204747 3.312379 -1.562603 -0.199156 -0.213069 20.206450 2.942163 -19.159620 -4.612761 -13.442489 39.703700 0.266559 -11.792827 19.815802 -0.772697 -5.612019 15.663011 0.216816 -0.465699 4.936789 1.635711 -0.401043 -1.726624 2.578817 -0.651880 4.441515 -4.781633 -2.114946 -6.940905 3.551946 -2.401856 29.011432 0.750354 -0.714108 10.575297 9.996543 3.744817 -0.529473 -104.167660 -33.196004 46.033548 11.809132 -22.533395 -2.585025 0.079574 -0.459991 -19.621700 28.596894 -9.466309 -4.855931 -7.125000 0.000000 0.000000 1.258616 19.821552 -0.757564 -8.742666 -2.912925 -0.029490 96.385772 27.311256 19.685134 -9.621580 20.012678 -1.990496 0.813371 0.553367 34.035073 -24.061204 -19.322223 8.940622 7.125000 0.000000 0.000000 4.146636 -52.005903 -0.716277
0.728260 21.302737 -6.422002 -2.009140 4.564689 5.446057 -0.234433 -0.167887 -0.057716 -14.038316 -1.466284 -22.535359 6.684893 15.626842 47.157083 1.015507 12.872724 30.238710 0.040428 1.297795 3.568574 -1.503176 -0.164986 -0.220038 20.118029 2.831135 -19.360490 -4.126005 -12.918163 37.780068 0.220771 -11.483136 19.910459 -0.689583 -5.308076 14.789559 0.226782 -0.455801 5.510115 1.653458 -0.365233 -1.662769 2.643502 -0.638229 4.342817 -4.892741 -2.202067 -6.847521 3.649514 -2.544301 29.248775 0.802048 -0.778656 10.659909 10.010901 3.714130 -0.562195 -104.948716 -33.275265 46.685754 11.685936 -22.258930 -2.526870 0.077223 -0.448294 -19.277354 28.272607 -9.346797 -4.734823 -7.125000 0.000000 0.000000 1.031040 19.970044 -0.617034 -8.739368 -2.878115 -0.004327 96.701480 27.412337 18.674578 -9.289462 19.435196 -1.860883 0.824166 0.543853 34.833398 -24.047282 -19.389716 8.964889 7.125000 0.000000 0.000000 4.178508 -52.078991 -0.729313
0.729471 21.383696 -6.177680 -1.952196 4.703440 5.099478 -0.264061 -0.225253 -0.103906 -14.160277 -1.317308 -23.320023 6.416544 15.460111 46.383865 0.940099 12.385458 29.564947 0.041354 1.312464 3.608878 -1.426638 -0.123171 -0.228504 19.884943 2.810370 -19.738437 -3.632974 -12.356214 35.744497 0.184333 -11.345878 20.093263 -0.612480 -5.008273 13.932175 0.155950 -0.396502 5.861892 1.651680 -0.276567 -1.622349 2.689598 -0.596610 4.269658 -4.991678 -2.288892 -6.737291 3.755760 -2.694621 29.512845 0.854628 -0.844278 10.748138 10.022429 3.691821 -0.590473 -105.628916 -33.288578 47.280578 11.596505 -22.049207 -2.482986 0.075015 -0.438548 -19.129029 28.108194 -9.335365 -4.702321 -7.125000 0.000000 0.000000 0.911725 19.984516 -0.545321 -8.739972 -2.853431 0.016082 97.016086 27.464429 17.686028 -8.995365 18.919604 -1.748409 0.835972 0.532424 35.454448 -24.166400 -19.360745 9.004686 7.125000 0.000000 0.000000 4.044013 -52.072241 -0.705128
